<svg xmlns="http://www.w3.org/2000/svg" width="250" height="110.628" viewBox="-103.181 -17.785 250 110.628"><g fill="#fff"><path d="M-103.181 87.489a5.362 5.362 0 0 0 5.356 5.354H2.38a5.36 5.36 0 0 0 5.356-5.354v-5.058h-110.917v5.058zm98.573-63.992a4.47 4.47 0 0 0-4.466-4.466h-77.302a4.472 4.472 0 0 0-4.463 4.466v54.542H-4.61V23.497h.002zm-8.614 4.151v41.775h-68.999V27.648h68.999zm60.433 48.114l-.394-1.799H24.234l-.392 1.799c-1.052 4.833-3.27 9.459-6.418 13.367l-2.991 3.715h42.193l-2.997-3.715c-3.147-3.903-5.365-8.525-6.418-13.367zm95.712-23.653h-16.301a3.902 3.902 0 0 0-3.896 3.899v32.935a3.903 3.903 0 0 0 3.896 3.897h16.301a3.903 3.903 0 0 0 3.896-3.897v-32.93a3.905 3.905 0 0 0-3.896-3.904zm-11.418 2.507h6.536a.853.853 0 0 1 0 1.706h-6.536c-.473 0-.854-.375-.854-.85s.381-.856.854-.856zm3.267 35.922a1.562 1.562 0 0 1 0-3.124 1.561 1.561 0 1 1 0 3.124zm8.699-5.374h-17.397V58.741h17.397v26.423zM112.86 21.917H65.795a4.47 4.47 0 0 0-4.466 4.467v61.998a4.468 4.468 0 0 0 4.466 4.462h47.065a4.471 4.471 0 0 0 4.467-4.462V26.384c-.006-2.463-2.009-4.467-4.467-4.467zM89.327 90.394a1.84 1.84 0 0 1 0-3.676c1.014 0 1.838.82 1.838 1.835a1.84 1.84 0 0 1-1.838 1.841zm19.38-6.168H69.949V30.534h38.752v53.691h.006zM-18.098-9.165H91.4v26.686h8.618v-30.838a4.473 4.473 0 0 0-4.471-4.468H-22.25a4.47 4.47 0 0 0-4.463 4.468v27.954h8.615V-9.165zM-.212 60.955h57.147v8.616H-.212z"/></g></svg>