<svg xmlns="http://www.w3.org/2000/svg" width="250" height="110.628" viewBox="-103.181 -17.785 250 110.628" enable-background="new -103.181 -17.785 250 110.628"><g fill="#fff"><path d="M-103.18 87.49c0 2.95 2.402 5.353 5.355 5.353H2.38c2.955 0 5.356-2.403 5.356-5.354v-5.06H-103.18v5.06zM-4.61 23.496c0-2.462-2-4.466-4.466-4.466h-77.302c-2.458 0-4.463 2.005-4.463 4.467V78.04h86.23V23.496h.002zm-8.614 4.15v41.776h-69V27.648h69zM47.21 75.763l-.393-1.8H24.234l-.392 1.8c-1.052 4.833-3.27 9.46-6.418 13.367l-2.99 3.714h42.192L53.63 89.13c-3.148-3.904-5.366-8.526-6.42-13.368zm95.713-23.653h-16.3c-2.15 0-3.897 1.75-3.897 3.898v32.935c0 2.147 1.75 3.897 3.896 3.897h16.3c2.148 0 3.897-1.75 3.897-3.897v-32.93c0-2.153-1.75-3.904-3.897-3.904zm-11.418 2.506h6.536c.473 0 .854.382.854.856s-.38.85-.853.85h-6.535c-.473 0-.854-.375-.854-.85s.382-.856.855-.856zm3.267 35.922c-.862 0-1.56-.703-1.56-1.562 0-.86.697-1.562 1.56-1.562.865 0 1.56.7 1.56 1.562 0 .86-.694 1.562-1.56 1.562zm8.7-5.374h-17.398V58.74h17.397v26.424zM112.86 21.917H65.795c-2.464 0-4.466 2.004-4.466 4.467v61.998c0 2.46 2 4.462 4.465 4.462h47.065c2.46 0 4.467-2.002 4.467-4.462V26.384c-.006-2.463-2.01-4.467-4.467-4.467zM89.327 90.394c-1.012 0-1.837-.822-1.837-1.84 0-1.012.822-1.836 1.837-1.836 1.014 0 1.838.82 1.838 1.835 0 1.018-.824 1.84-1.838 1.84zm19.38-6.168H69.95V30.534h38.75v53.69h.007zM-18.098-9.164H91.4V17.52h8.618v-30.837c0-2.463-2.003-4.468-4.47-4.468H-22.25c-2.462 0-4.463 2.005-4.463 4.468v27.954h8.615V-9.165zM-.212 60.955h57.147v8.616H-.212z"/></g></svg>