<svg xmlns="http://www.w3.org/2000/svg" width="1194.531" height="330.633" viewBox="0 0 1194.531 330.633"><path fill-rule="evenodd" clip-rule="evenodd" stroke="#000" stroke-width=".5" stroke-miterlimit="2.613" d="M542.447 71.336c10.4 7.794 17.042 13.64 19.93 17.536 2.89 3.897 2.167 5.846-2.166 5.846-2.165 0-5.198-.472-9.098-1.357-3.9-.944-8.666-2.36-14.298-4.31-7.077-2.54-13.937-6.082-20.508-10.51-6.5-4.43-12.348-9.39-17.547-14.82s-9.316-10.925-12.35-16.416c-3.032-5.49-4.548-10.628-4.62-15.293 0-9.446 3.25-16.886 9.892-22.26 6.57-5.432 16.537-8.502 29.968-9.27 3.25-.296 8.304-.296 15.092-.06s14.875.886 24.263 2.008c9.315 1.062 19.497 2.834 30.4 5.137 8.738 2.008 17.26 3.72 25.49 5.137 8.305 1.477 16.03 2.717 23.254 3.78 7.147 1.003 13.43 1.948 18.845 2.774 7.697 1.26 15.553 1.77 23.396 1.77 22.743 0 20.94-14.728 28.31 12.932 1.588 5.964 2.455 11.69 2.455 17.183.072 3.13-.36 6.26-1.373 9.508-.938 3.247-2.816 5.964-5.56 8.207-2.815 2.126-6.065 3.543-9.82 4.25-3.683.71-7.944.71-12.71 0-3.467-.53-6.932-1.06-10.47-1.65-3.612-.65-7.294-1.36-11.194-2.245-8.232-1.83-16.39-3.602-24.623-5.49-8.16-1.83-15.67-3.484-22.53-4.96-6.86-1.536-12.35-2.6-16.537-3.366-3.827-.71-8.088-1.417-12.854-2.008-4.693-.65-9.46-1.24-14.298-1.713-4.91-.472-9.532-.886-13.937-1.18-4.333-.237-8.16-.414-11.338-.414-4.333.058-8.016.472-11.12 1.298-3.034.768-5.56 1.653-7.51 2.6.505 1.83 2.093 4.31 4.837 7.38 2.673 3.07 6.14 6.375 10.327 9.978zM1121.572 237.77l-36.992-83.338c-.566-1.134-.85-1.984-.85-2.55 0-3.403 2.41-5.104 7.23-5.104 6.235 0 10.487 2.692 12.755 8.078l36.14 80.788c1.985 4.535 2.978 8.646 2.978 12.33 0 3.97-1.7 5.953-5.102 5.953-5.953.002-11.337-5.384-16.158-16.156zm-134.787-22.11c7.37 16.158 23.244 30.898 47.623 44.222 23.244 13.04 44.787 19.56 64.63 19.56 9.07 0 14.315-4.253 15.73-12.757 10.206 9.07 21.687 13.606 34.442 13.606 30.047 0 45.07-10.204 45.07-30.613 0-10.77-3.826-24.803-11.48-42.095l-5.953-13.18c-8.787-19.844-20.268-36.285-34.44-49.324-17.007-15.59-34.866-23.386-53.575-23.386-76.385 0-46.756 69.122-30.188 106.3 1.133 2.55 1.7 4.818 1.7 6.803 0 3.685-2.126 5.527-6.378 5.527-8.504 0-18.922-4.535-31.252-13.606-12.33-9.07-20.48-17.716-24.45-25.937l-11.48 14.88zM856.592 216.337c7.086 16.157 23.244 31.04 48.473 44.646 23.244 12.473 43.23 18.71 59.953 18.71h32.314c30.613 0 45.92-10.064 45.92-30.19 0-10.488-3.967-24.378-11.904-41.67l-13.607-30.613c-6.802-15.308-16.015-28.063-27.636-38.268-13.04-11.34-27.07-17.008-42.094-17.008h-42.096c-18.14 0-26.16 7.125-27.213 21.26-1.876 25.19 78.65 64.97 54.427 11.48-.283-1.134-.426-1.984-.426-2.552 0-3.4 2.41-5.103 7.23-5.103 5.953 0 10.062 2.692 12.332 8.078l36.14 80.787c1.985 4.536 2.978 8.504 2.978 11.906 0 4.253-1.7 6.38-5.102 6.38h-12.332c-27.213 0-53.148-8.08-77.81-24.237-14.458-9.638-23.954-19.276-28.49-28.914l-11.054 14.88v.427zM699.092 215.944c7.088 15.59 22.82 30.188 47.197 43.795 23.243 13.038 44.786 19.56 64.63 19.56 9.07 0 14.314-4.253 15.732-12.757 10.488 9.07 21.97 13.605 34.44 13.605 30.33 0 45.495-10.204 45.495-30.613 0-10.488-3.967-24.52-11.904-42.095-11.906-26.788-23.81-53.575-35.717-80.362-85.576 0-45.58 22.638-7.23 108.425 1.985 4.536 2.978 8.646 2.978 12.33 0 3.97-1.7 5.953-5.104 5.953-5.95 0-11.195-5.386-15.73-16.157-16.22-36.93-32.436-73.86-48.654-110.79-78.93-.176-45.275 18.582-14.7 101.01 1.134 2.55 1.7 4.82 1.7 6.803 0 3.686-2.127 5.528-6.38 5.528-18.56 0-80.715-54.128-66.754-24.236zM372.775 259.74c23.244 13.038 44.788 19.56 64.63 19.56 9.07 0 14.315-4.253 15.732-12.757 10.488 9.07 21.968 13.605 34.44 13.605 30.332 0 45.497-10.204 45.497-30.613 0-10.488-4.074-24.474-11.906-42.095L459.06 67.696c-96.414 0-21.856 75.863 19.163 167.807 2.017 4.52 2.977 8.646 2.977 12.33 0 3.97-1.7 5.953-5.103 5.953-5.953 0-10.99-5.475-15.732-16.157l-76.23-170.58c-98.877 1.466-30.02 64.865 12.876 160.8 1.14 2.548 1.702 4.82 1.702 6.803 0 3.686-2.126 5.528-6.378 5.528-8.22 0-18.567-4.535-31.04-13.605-72.134-52.46-27.6 11.352 11.48 33.164zM524.818 270.062c24.516 12.21 85.194 19.91 85.194-20.527 0-10.488-4.074-24.474-11.906-42.095l-35.716-80.362c-85.575 0-45.58 22.638-7.23 108.425 2.022 4.52 2.978 8.646 2.978 12.33 0 3.97-1.7 5.953-5.103 5.953-3.012 0-23.568-6.276-26.217-9.035l-2 25.312zM.27 217.013c29.258 64.37 242.105 83.314 247.558 50.598 10.488 9.072 21.97 13.607 34.44 13.607 30.332 0 45.497-10.204 45.497-30.614 0-10.488-3.97-24.52-11.906-42.094l-35.717-81.78c-85.816 0-45.286 23.6-7.23 109.842 1.985 4.535 2.978 8.646 2.978 12.33 0 3.97-1.7 5.953-5.102 5.953-5.953 0-11.197-5.386-15.732-16.157l-50.334-112.596c-86.813.222-51.833 15.08-13.02 102.816 1.133 2.55 1.7 4.818 1.7 6.803 0 3.687-2.387 4.063-6.378 5.528-63.73 23.4-188.555-48.92-186.755-24.235zM615.662 67.355c-93.553 0-15.74 84.554 23.426 173.074.617 1.395.85 2.834.85 4.25 0 7.37-4.453 14.53-10.63 11.056-24.534-13.8-26.692 24.236 27.638 24.236 13.607 0 23.387-.992 29.34-2.977 7.938-2.834 11.904-8.078 11.904-15.73 0-5.388-1.76-12.368-5.527-20.836-25.667-57.692-51.335-115.383-77-173.075zM823.775 310.257c2.268 5.67 6.45 10.204 12.545 13.605 6.094 3.402 11.975 5.103 17.645 5.103 10.488 0 15.732-3.968 15.732-11.905 0-1.984-.566-4.252-1.7-6.803-2.27-5.386-6.52-9.85-12.757-13.395-6.236-3.543-12.188-5.314-17.857-5.314-10.205 0-15.307 3.97-15.307 11.905 0 2.268.567 4.535 1.7 6.804zM865.02 310.257c2.553 5.67 6.875 10.204 12.97 13.605 6.095 3.402 11.976 5.103 17.645 5.103 10.488 0 15.732-3.968 15.732-11.905 0-1.984-.566-4.252-1.7-6.803-2.552-5.67-6.804-10.205-12.757-13.606s-11.906-5.102-17.857-5.102c-10.205 0-15.31 3.97-15.31 11.905 0 2.268.427 4.535 1.277 6.804zM970.307 311.674c2.55 5.67 6.875 10.205 12.97 13.606s11.976 5.103 17.645 5.103c10.488 0 15.732-3.97 15.732-11.906 0-1.983-.568-4.252-1.7-6.803-2.552-5.67-6.804-10.205-12.757-13.606s-11.906-5.103-17.86-5.103c-10.204 0-15.306 3.97-15.306 11.906 0 2.27.427 4.536 1.277 6.804zM78.836 184.06c2.55 5.67 6.874 10.205 12.968 13.606s11.977 5.103 17.646 5.103c10.488 0 15.732-3.97 15.732-11.907 0-1.984-.567-4.252-1.7-6.803-2.552-5.67-6.804-10.205-12.757-13.606-5.953-3.4-11.906-5.103-17.858-5.103-10.205 0-15.307 3.97-15.307 11.906 0 2.268.426 4.536 1.276 6.804zM497.246 103.55c2.55 5.67 6.874 10.205 12.97 13.606 6.093 3.4 11.976 5.103 17.645 5.103 10.49 0 15.733-3.97 15.733-11.907 0-1.983-.567-4.252-1.7-6.803-2.552-5.67-6.804-10.205-12.757-13.606s-11.906-5.103-17.858-5.103c-10.205 0-15.307 3.97-15.307 11.907 0 2.268.426 4.535 1.276 6.803zM252.9 310.257c2.268 5.67 6.45 10.204 12.543 13.605 6.094 3.402 11.976 5.103 17.646 5.103 10.487 0 15.73-3.968 15.73-11.905 0-1.984-.566-4.252-1.7-6.803-2.268-5.386-6.52-9.85-12.756-13.395-6.236-3.543-12.19-5.314-17.858-5.314-10.205 0-15.307 3.97-15.307 11.905 0 2.268.566 4.535 1.7 6.804zM294.144 310.257c2.55 5.67 6.874 10.204 12.968 13.605 6.095 3.402 11.977 5.103 17.646 5.103 10.488 0 15.732-3.968 15.732-11.905 0-1.984-.567-4.252-1.7-6.803-2.552-5.67-6.804-10.205-12.757-13.606s-11.905-5.102-17.858-5.102c-10.205 0-15.307 3.97-15.307 11.905 0 2.268.425 4.535 1.276 6.804z"/></svg>